<mxfile host="app.diagrams.net" modified="2021-11-25T13:31:11.594Z" agent="5.0 (Macintosh; Intel Mac OS X 10_15_7) AppleWebKit/537.36 (KHTML, like Gecko) Chrome/96.0.4664.55 Safari/537.36" etag="rNzQ3G17qbWcwBjYcHXl" version="15.7.4" type="github">
  <diagram id="C5RBs43oDa-KdzZeNtuy" name="Page-1">
    <mxGraphModel dx="1965" dy="1160" grid="1" gridSize="10" guides="1" tooltips="1" connect="1" arrows="1" fold="1" page="1" pageScale="1" pageWidth="2336" pageHeight="1654" math="0" shadow="0">
      <root>
        <mxCell id="WIyWlLk6GJQsqaUBKTNV-0" />
        <mxCell id="WIyWlLk6GJQsqaUBKTNV-1" parent="WIyWlLk6GJQsqaUBKTNV-0" />
        <mxCell id="JAMrZ0qrhWs-7ivVAUOF-1" value="Which statistical test should I do?" style="text;strokeColor=none;fillColor=none;html=1;fontSize=24;fontStyle=1;verticalAlign=middle;align=center;rounded=1;sketch=1;" parent="WIyWlLk6GJQsqaUBKTNV-1" vertex="1">
          <mxGeometry x="1118" y="30" width="100" height="40" as="geometry" />
        </mxCell>
        <mxCell id="MVwHB6ay0Yw3TeFJw84J-4" value="" style="edgeStyle=orthogonalEdgeStyle;orthogonalLoop=1;jettySize=auto;html=1;sketch=1;" edge="1" parent="WIyWlLk6GJQsqaUBKTNV-1" source="MVwHB6ay0Yw3TeFJw84J-2" target="MVwHB6ay0Yw3TeFJw84J-3">
          <mxGeometry relative="1" as="geometry" />
        </mxCell>
        <mxCell id="MVwHB6ay0Yw3TeFJw84J-8" value="" style="edgeStyle=orthogonalEdgeStyle;orthogonalLoop=1;jettySize=auto;html=1;sketch=1;" edge="1" parent="WIyWlLk6GJQsqaUBKTNV-1" source="MVwHB6ay0Yw3TeFJw84J-2" target="MVwHB6ay0Yw3TeFJw84J-7">
          <mxGeometry relative="1" as="geometry" />
        </mxCell>
        <mxCell id="MVwHB6ay0Yw3TeFJw84J-63" style="edgeStyle=orthogonalEdgeStyle;rounded=1;sketch=1;orthogonalLoop=1;jettySize=auto;html=1;exitX=0.5;exitY=1;exitDx=0;exitDy=0;entryX=0.5;entryY=0;entryDx=0;entryDy=0;" edge="1" parent="WIyWlLk6GJQsqaUBKTNV-1" source="MVwHB6ay0Yw3TeFJw84J-2" target="MVwHB6ay0Yw3TeFJw84J-5">
          <mxGeometry relative="1" as="geometry" />
        </mxCell>
        <mxCell id="MVwHB6ay0Yw3TeFJw84J-2" value="How many variables?" style="whiteSpace=wrap;html=1;rounded=1;sketch=1;" vertex="1" parent="WIyWlLk6GJQsqaUBKTNV-1">
          <mxGeometry x="1313" y="170" width="120" height="60" as="geometry" />
        </mxCell>
        <mxCell id="MVwHB6ay0Yw3TeFJw84J-45" style="edgeStyle=orthogonalEdgeStyle;rounded=1;sketch=1;orthogonalLoop=1;jettySize=auto;html=1;exitX=1;exitY=0.5;exitDx=0;exitDy=0;entryX=0.5;entryY=0;entryDx=0;entryDy=0;" edge="1" parent="WIyWlLk6GJQsqaUBKTNV-1" source="MVwHB6ay0Yw3TeFJw84J-3" target="MVwHB6ay0Yw3TeFJw84J-14">
          <mxGeometry relative="1" as="geometry" />
        </mxCell>
        <mxCell id="MVwHB6ay0Yw3TeFJw84J-46" style="edgeStyle=orthogonalEdgeStyle;rounded=1;sketch=1;orthogonalLoop=1;jettySize=auto;html=1;exitX=0;exitY=0.5;exitDx=0;exitDy=0;entryX=0.5;entryY=0;entryDx=0;entryDy=0;" edge="1" parent="WIyWlLk6GJQsqaUBKTNV-1" source="MVwHB6ay0Yw3TeFJw84J-3" target="MVwHB6ay0Yw3TeFJw84J-12">
          <mxGeometry relative="1" as="geometry" />
        </mxCell>
        <mxCell id="MVwHB6ay0Yw3TeFJw84J-3" value="1 variable" style="whiteSpace=wrap;html=1;rounded=1;sketch=1;" vertex="1" parent="WIyWlLk6GJQsqaUBKTNV-1">
          <mxGeometry x="228" y="260" width="120" height="60" as="geometry" />
        </mxCell>
        <mxCell id="MVwHB6ay0Yw3TeFJw84J-71" value="" style="edgeStyle=orthogonalEdgeStyle;rounded=1;sketch=1;orthogonalLoop=1;jettySize=auto;html=1;" edge="1" parent="WIyWlLk6GJQsqaUBKTNV-1" source="MVwHB6ay0Yw3TeFJw84J-5" target="MVwHB6ay0Yw3TeFJw84J-70">
          <mxGeometry relative="1" as="geometry" />
        </mxCell>
        <mxCell id="MVwHB6ay0Yw3TeFJw84J-84" value="" style="edgeStyle=orthogonalEdgeStyle;rounded=1;sketch=1;orthogonalLoop=1;jettySize=auto;html=1;" edge="1" parent="WIyWlLk6GJQsqaUBKTNV-1" source="MVwHB6ay0Yw3TeFJw84J-5" target="MVwHB6ay0Yw3TeFJw84J-83">
          <mxGeometry relative="1" as="geometry" />
        </mxCell>
        <mxCell id="MVwHB6ay0Yw3TeFJw84J-90" value="" style="edgeStyle=orthogonalEdgeStyle;rounded=1;sketch=1;orthogonalLoop=1;jettySize=auto;html=1;" edge="1" parent="WIyWlLk6GJQsqaUBKTNV-1" source="MVwHB6ay0Yw3TeFJw84J-5" target="MVwHB6ay0Yw3TeFJw84J-89">
          <mxGeometry relative="1" as="geometry" />
        </mxCell>
        <mxCell id="MVwHB6ay0Yw3TeFJw84J-5" value="2 variables" style="whiteSpace=wrap;html=1;rounded=1;sketch=1;" vertex="1" parent="WIyWlLk6GJQsqaUBKTNV-1">
          <mxGeometry x="1313" y="260" width="120" height="60" as="geometry" />
        </mxCell>
        <mxCell id="MVwHB6ay0Yw3TeFJw84J-81" style="edgeStyle=orthogonalEdgeStyle;rounded=1;sketch=1;orthogonalLoop=1;jettySize=auto;html=1;exitX=0;exitY=0.5;exitDx=0;exitDy=0;entryX=0.5;entryY=0;entryDx=0;entryDy=0;" edge="1" parent="WIyWlLk6GJQsqaUBKTNV-1" source="MVwHB6ay0Yw3TeFJw84J-7" target="MVwHB6ay0Yw3TeFJw84J-49">
          <mxGeometry relative="1" as="geometry" />
        </mxCell>
        <mxCell id="MVwHB6ay0Yw3TeFJw84J-82" style="edgeStyle=orthogonalEdgeStyle;rounded=1;sketch=1;orthogonalLoop=1;jettySize=auto;html=1;exitX=1;exitY=0.5;exitDx=0;exitDy=0;entryX=0.5;entryY=0;entryDx=0;entryDy=0;" edge="1" parent="WIyWlLk6GJQsqaUBKTNV-1" source="MVwHB6ay0Yw3TeFJw84J-7" target="MVwHB6ay0Yw3TeFJw84J-51">
          <mxGeometry relative="1" as="geometry" />
        </mxCell>
        <mxCell id="MVwHB6ay0Yw3TeFJw84J-7" value="&amp;gt; 2 variables" style="whiteSpace=wrap;html=1;rounded=1;sketch=1;" vertex="1" parent="WIyWlLk6GJQsqaUBKTNV-1">
          <mxGeometry x="2028" y="260" width="120" height="60" as="geometry" />
        </mxCell>
        <mxCell id="MVwHB6ay0Yw3TeFJw84J-27" value="" style="edgeStyle=orthogonalEdgeStyle;rounded=1;sketch=1;orthogonalLoop=1;jettySize=auto;html=1;" edge="1" parent="WIyWlLk6GJQsqaUBKTNV-1" source="MVwHB6ay0Yw3TeFJw84J-12" target="MVwHB6ay0Yw3TeFJw84J-26">
          <mxGeometry relative="1" as="geometry" />
        </mxCell>
        <mxCell id="MVwHB6ay0Yw3TeFJw84J-28" style="edgeStyle=orthogonalEdgeStyle;rounded=1;sketch=1;orthogonalLoop=1;jettySize=auto;html=1;exitX=0.5;exitY=1;exitDx=0;exitDy=0;" edge="1" parent="WIyWlLk6GJQsqaUBKTNV-1" source="MVwHB6ay0Yw3TeFJw84J-12" target="MVwHB6ay0Yw3TeFJw84J-29">
          <mxGeometry relative="1" as="geometry">
            <mxPoint x="208" y="500" as="targetPoint" />
          </mxGeometry>
        </mxCell>
        <mxCell id="MVwHB6ay0Yw3TeFJw84J-12" value="Qualitative" style="whiteSpace=wrap;html=1;rounded=1;sketch=1;" vertex="1" parent="WIyWlLk6GJQsqaUBKTNV-1">
          <mxGeometry x="78" y="340" width="120" height="60" as="geometry" />
        </mxCell>
        <mxCell id="MVwHB6ay0Yw3TeFJw84J-39" value="" style="edgeStyle=orthogonalEdgeStyle;rounded=1;sketch=1;orthogonalLoop=1;jettySize=auto;html=1;" edge="1" parent="WIyWlLk6GJQsqaUBKTNV-1" source="MVwHB6ay0Yw3TeFJw84J-14" target="MVwHB6ay0Yw3TeFJw84J-38">
          <mxGeometry relative="1" as="geometry" />
        </mxCell>
        <mxCell id="MVwHB6ay0Yw3TeFJw84J-44" style="edgeStyle=orthogonalEdgeStyle;rounded=1;sketch=1;orthogonalLoop=1;jettySize=auto;html=1;exitX=0.5;exitY=1;exitDx=0;exitDy=0;entryX=0.5;entryY=0;entryDx=0;entryDy=0;" edge="1" parent="WIyWlLk6GJQsqaUBKTNV-1" source="MVwHB6ay0Yw3TeFJw84J-14" target="MVwHB6ay0Yw3TeFJw84J-36">
          <mxGeometry relative="1" as="geometry" />
        </mxCell>
        <mxCell id="MVwHB6ay0Yw3TeFJw84J-14" value="Quantitative" style="whiteSpace=wrap;html=1;rounded=1;sketch=1;" vertex="1" parent="WIyWlLk6GJQsqaUBKTNV-1">
          <mxGeometry x="378" y="340" width="120" height="60" as="geometry" />
        </mxCell>
        <mxCell id="MVwHB6ay0Yw3TeFJw84J-33" value="" style="edgeStyle=orthogonalEdgeStyle;rounded=1;sketch=1;orthogonalLoop=1;jettySize=auto;html=1;" edge="1" parent="WIyWlLk6GJQsqaUBKTNV-1" source="MVwHB6ay0Yw3TeFJw84J-26" target="MVwHB6ay0Yw3TeFJw84J-32">
          <mxGeometry relative="1" as="geometry" />
        </mxCell>
        <mxCell id="MVwHB6ay0Yw3TeFJw84J-26" value="2 groups" style="whiteSpace=wrap;html=1;rounded=1;sketch=1;" vertex="1" parent="WIyWlLk6GJQsqaUBKTNV-1">
          <mxGeometry x="8" y="440" width="120" height="60" as="geometry" />
        </mxCell>
        <mxCell id="MVwHB6ay0Yw3TeFJw84J-35" value="" style="edgeStyle=orthogonalEdgeStyle;rounded=1;sketch=1;orthogonalLoop=1;jettySize=auto;html=1;" edge="1" parent="WIyWlLk6GJQsqaUBKTNV-1" source="MVwHB6ay0Yw3TeFJw84J-29" target="MVwHB6ay0Yw3TeFJw84J-34">
          <mxGeometry relative="1" as="geometry" />
        </mxCell>
        <mxCell id="MVwHB6ay0Yw3TeFJw84J-29" value="&amp;gt; 2 groups" style="rounded=1;whiteSpace=wrap;html=1;sketch=1;" vertex="1" parent="WIyWlLk6GJQsqaUBKTNV-1">
          <mxGeometry x="148" y="440" width="120" height="60" as="geometry" />
        </mxCell>
        <mxCell id="MVwHB6ay0Yw3TeFJw84J-32" value="One-proportion&lt;br&gt;test" style="ellipse;whiteSpace=wrap;html=1;rounded=1;sketch=1;" vertex="1" parent="WIyWlLk6GJQsqaUBKTNV-1">
          <mxGeometry x="8" y="540" width="120" height="60" as="geometry" />
        </mxCell>
        <mxCell id="MVwHB6ay0Yw3TeFJw84J-34" value="Chi-square&lt;br&gt;goodness of fit test" style="ellipse;whiteSpace=wrap;html=1;rounded=1;sketch=1;" vertex="1" parent="WIyWlLk6GJQsqaUBKTNV-1">
          <mxGeometry x="148" y="540" width="120" height="60" as="geometry" />
        </mxCell>
        <mxCell id="MVwHB6ay0Yw3TeFJw84J-41" value="" style="edgeStyle=orthogonalEdgeStyle;rounded=1;sketch=1;orthogonalLoop=1;jettySize=auto;html=1;" edge="1" parent="WIyWlLk6GJQsqaUBKTNV-1" source="MVwHB6ay0Yw3TeFJw84J-36" target="MVwHB6ay0Yw3TeFJw84J-40">
          <mxGeometry relative="1" as="geometry" />
        </mxCell>
        <mxCell id="MVwHB6ay0Yw3TeFJw84J-36" value="Parametric" style="whiteSpace=wrap;html=1;rounded=1;sketch=1;" vertex="1" parent="WIyWlLk6GJQsqaUBKTNV-1">
          <mxGeometry x="308" y="440" width="120" height="60" as="geometry" />
        </mxCell>
        <mxCell id="MVwHB6ay0Yw3TeFJw84J-43" value="" style="edgeStyle=orthogonalEdgeStyle;rounded=1;sketch=1;orthogonalLoop=1;jettySize=auto;html=1;" edge="1" parent="WIyWlLk6GJQsqaUBKTNV-1" source="MVwHB6ay0Yw3TeFJw84J-38" target="MVwHB6ay0Yw3TeFJw84J-42">
          <mxGeometry relative="1" as="geometry" />
        </mxCell>
        <mxCell id="MVwHB6ay0Yw3TeFJw84J-38" value="Nonparametric" style="whiteSpace=wrap;html=1;rounded=1;sketch=1;" vertex="1" parent="WIyWlLk6GJQsqaUBKTNV-1">
          <mxGeometry x="448" y="440" width="120" height="60" as="geometry" />
        </mxCell>
        <mxCell id="MVwHB6ay0Yw3TeFJw84J-40" value="One-sample Student&#39;s t-test" style="ellipse;whiteSpace=wrap;html=1;rounded=1;sketch=1;" vertex="1" parent="WIyWlLk6GJQsqaUBKTNV-1">
          <mxGeometry x="308" y="540" width="120" height="60" as="geometry" />
        </mxCell>
        <mxCell id="MVwHB6ay0Yw3TeFJw84J-42" value="One-sample&lt;br&gt;Wilcoxon test" style="ellipse;whiteSpace=wrap;html=1;rounded=1;sketch=1;" vertex="1" parent="WIyWlLk6GJQsqaUBKTNV-1">
          <mxGeometry x="448" y="540" width="120" height="60" as="geometry" />
        </mxCell>
        <mxCell id="MVwHB6ay0Yw3TeFJw84J-54" value="" style="edgeStyle=orthogonalEdgeStyle;rounded=1;sketch=1;orthogonalLoop=1;jettySize=auto;html=1;" edge="1" parent="WIyWlLk6GJQsqaUBKTNV-1" source="MVwHB6ay0Yw3TeFJw84J-49" target="MVwHB6ay0Yw3TeFJw84J-53">
          <mxGeometry relative="1" as="geometry" />
        </mxCell>
        <mxCell id="MVwHB6ay0Yw3TeFJw84J-49" value="Quantitative&lt;br&gt;dependent variable" style="whiteSpace=wrap;html=1;rounded=1;sketch=1;" vertex="1" parent="WIyWlLk6GJQsqaUBKTNV-1">
          <mxGeometry x="1918" y="340" width="120" height="60" as="geometry" />
        </mxCell>
        <mxCell id="MVwHB6ay0Yw3TeFJw84J-56" value="" style="edgeStyle=orthogonalEdgeStyle;rounded=1;sketch=1;orthogonalLoop=1;jettySize=auto;html=1;exitX=0.5;exitY=1;exitDx=0;exitDy=0;" edge="1" parent="WIyWlLk6GJQsqaUBKTNV-1" source="MVwHB6ay0Yw3TeFJw84J-51" target="MVwHB6ay0Yw3TeFJw84J-55">
          <mxGeometry relative="1" as="geometry" />
        </mxCell>
        <mxCell id="MVwHB6ay0Yw3TeFJw84J-62" value="" style="edgeStyle=orthogonalEdgeStyle;rounded=1;sketch=1;orthogonalLoop=1;jettySize=auto;html=1;" edge="1" parent="WIyWlLk6GJQsqaUBKTNV-1" source="MVwHB6ay0Yw3TeFJw84J-51" target="MVwHB6ay0Yw3TeFJw84J-61">
          <mxGeometry relative="1" as="geometry" />
        </mxCell>
        <mxCell id="MVwHB6ay0Yw3TeFJw84J-51" value="Qualitative&lt;br&gt;dependent variable&amp;nbsp;" style="whiteSpace=wrap;html=1;rounded=1;sketch=1;" vertex="1" parent="WIyWlLk6GJQsqaUBKTNV-1">
          <mxGeometry x="2138" y="340" width="120" height="60" as="geometry" />
        </mxCell>
        <mxCell id="MVwHB6ay0Yw3TeFJw84J-53" value="Multiple linear regression" style="ellipse;whiteSpace=wrap;html=1;rounded=1;sketch=1;" vertex="1" parent="WIyWlLk6GJQsqaUBKTNV-1">
          <mxGeometry x="1918" y="550" width="120" height="60" as="geometry" />
        </mxCell>
        <mxCell id="MVwHB6ay0Yw3TeFJw84J-58" value="" style="edgeStyle=orthogonalEdgeStyle;rounded=1;sketch=1;orthogonalLoop=1;jettySize=auto;html=1;" edge="1" parent="WIyWlLk6GJQsqaUBKTNV-1" source="MVwHB6ay0Yw3TeFJw84J-55" target="MVwHB6ay0Yw3TeFJw84J-57">
          <mxGeometry relative="1" as="geometry" />
        </mxCell>
        <mxCell id="MVwHB6ay0Yw3TeFJw84J-60" value="" style="edgeStyle=orthogonalEdgeStyle;rounded=1;sketch=1;orthogonalLoop=1;jettySize=auto;html=1;exitX=0.5;exitY=1;exitDx=0;exitDy=0;" edge="1" parent="WIyWlLk6GJQsqaUBKTNV-1" source="MVwHB6ay0Yw3TeFJw84J-61" target="MVwHB6ay0Yw3TeFJw84J-59">
          <mxGeometry relative="1" as="geometry" />
        </mxCell>
        <mxCell id="MVwHB6ay0Yw3TeFJw84J-55" value="2 groups" style="whiteSpace=wrap;html=1;rounded=1;sketch=1;" vertex="1" parent="WIyWlLk6GJQsqaUBKTNV-1">
          <mxGeometry x="2068" y="440" width="120" height="60" as="geometry" />
        </mxCell>
        <mxCell id="MVwHB6ay0Yw3TeFJw84J-57" value="Binary logistic regression" style="ellipse;whiteSpace=wrap;html=1;rounded=1;sketch=1;" vertex="1" parent="WIyWlLk6GJQsqaUBKTNV-1">
          <mxGeometry x="2068" y="550" width="120" height="60" as="geometry" />
        </mxCell>
        <mxCell id="MVwHB6ay0Yw3TeFJw84J-59" value="Multinomial&lt;br&gt;logistic regression" style="ellipse;whiteSpace=wrap;html=1;rounded=1;sketch=1;" vertex="1" parent="WIyWlLk6GJQsqaUBKTNV-1">
          <mxGeometry x="2208" y="550" width="120" height="60" as="geometry" />
        </mxCell>
        <mxCell id="MVwHB6ay0Yw3TeFJw84J-61" value="&amp;gt; 2 groups" style="whiteSpace=wrap;html=1;rounded=1;sketch=1;" vertex="1" parent="WIyWlLk6GJQsqaUBKTNV-1">
          <mxGeometry x="2208" y="440" width="120" height="60" as="geometry" />
        </mxCell>
        <mxCell id="MVwHB6ay0Yw3TeFJw84J-73" value="" style="edgeStyle=orthogonalEdgeStyle;rounded=1;sketch=1;orthogonalLoop=1;jettySize=auto;html=1;exitX=0.5;exitY=1;exitDx=0;exitDy=0;" edge="1" parent="WIyWlLk6GJQsqaUBKTNV-1" source="MVwHB6ay0Yw3TeFJw84J-70" target="MVwHB6ay0Yw3TeFJw84J-72">
          <mxGeometry relative="1" as="geometry" />
        </mxCell>
        <mxCell id="MVwHB6ay0Yw3TeFJw84J-78" value="" style="edgeStyle=orthogonalEdgeStyle;rounded=1;sketch=1;orthogonalLoop=1;jettySize=auto;html=1;" edge="1" parent="WIyWlLk6GJQsqaUBKTNV-1" source="MVwHB6ay0Yw3TeFJw84J-70" target="MVwHB6ay0Yw3TeFJw84J-77">
          <mxGeometry relative="1" as="geometry" />
        </mxCell>
        <mxCell id="MVwHB6ay0Yw3TeFJw84J-70" value="2 quantitative" style="whiteSpace=wrap;html=1;rounded=1;sketch=1;" vertex="1" parent="WIyWlLk6GJQsqaUBKTNV-1">
          <mxGeometry x="1688" y="340" width="120" height="60" as="geometry" />
        </mxCell>
        <mxCell id="MVwHB6ay0Yw3TeFJw84J-75" value="" style="edgeStyle=orthogonalEdgeStyle;rounded=1;sketch=1;orthogonalLoop=1;jettySize=auto;html=1;" edge="1" parent="WIyWlLk6GJQsqaUBKTNV-1" source="MVwHB6ay0Yw3TeFJw84J-72" target="MVwHB6ay0Yw3TeFJw84J-74">
          <mxGeometry relative="1" as="geometry" />
        </mxCell>
        <mxCell id="MVwHB6ay0Yw3TeFJw84J-72" value="Parametric" style="whiteSpace=wrap;html=1;rounded=1;sketch=1;" vertex="1" parent="WIyWlLk6GJQsqaUBKTNV-1">
          <mxGeometry x="1618" y="440" width="120" height="60" as="geometry" />
        </mxCell>
        <mxCell id="MVwHB6ay0Yw3TeFJw84J-74" value="Pearson&lt;br&gt;correlation" style="ellipse;whiteSpace=wrap;html=1;rounded=1;sketch=1;" vertex="1" parent="WIyWlLk6GJQsqaUBKTNV-1">
          <mxGeometry x="1618" y="550" width="120" height="60" as="geometry" />
        </mxCell>
        <mxCell id="MVwHB6ay0Yw3TeFJw84J-80" value="" style="edgeStyle=orthogonalEdgeStyle;rounded=1;sketch=1;orthogonalLoop=1;jettySize=auto;html=1;" edge="1" parent="WIyWlLk6GJQsqaUBKTNV-1" source="MVwHB6ay0Yw3TeFJw84J-77" target="MVwHB6ay0Yw3TeFJw84J-79">
          <mxGeometry relative="1" as="geometry" />
        </mxCell>
        <mxCell id="MVwHB6ay0Yw3TeFJw84J-77" value="Nonparametric" style="whiteSpace=wrap;html=1;rounded=1;sketch=1;" vertex="1" parent="WIyWlLk6GJQsqaUBKTNV-1">
          <mxGeometry x="1758" y="440" width="120" height="60" as="geometry" />
        </mxCell>
        <mxCell id="MVwHB6ay0Yw3TeFJw84J-79" value="&lt;span&gt;Spearman&#39;s&lt;br&gt;rank correlation&lt;/span&gt;" style="ellipse;whiteSpace=wrap;html=1;rounded=1;sketch=1;" vertex="1" parent="WIyWlLk6GJQsqaUBKTNV-1">
          <mxGeometry x="1758" y="550" width="120" height="60" as="geometry" />
        </mxCell>
        <mxCell id="MVwHB6ay0Yw3TeFJw84J-86" value="" style="edgeStyle=orthogonalEdgeStyle;rounded=1;sketch=1;orthogonalLoop=1;jettySize=auto;html=1;" edge="1" parent="WIyWlLk6GJQsqaUBKTNV-1" source="MVwHB6ay0Yw3TeFJw84J-83" target="MVwHB6ay0Yw3TeFJw84J-85">
          <mxGeometry relative="1" as="geometry" />
        </mxCell>
        <mxCell id="MVwHB6ay0Yw3TeFJw84J-109" style="edgeStyle=orthogonalEdgeStyle;rounded=1;sketch=1;orthogonalLoop=1;jettySize=auto;html=1;exitX=0.5;exitY=1;exitDx=0;exitDy=0;entryX=0.5;entryY=0;entryDx=0;entryDy=0;" edge="1" parent="WIyWlLk6GJQsqaUBKTNV-1" source="MVwHB6ay0Yw3TeFJw84J-83" target="MVwHB6ay0Yw3TeFJw84J-87">
          <mxGeometry relative="1" as="geometry" />
        </mxCell>
        <mxCell id="MVwHB6ay0Yw3TeFJw84J-83" value="2 qualitative" style="whiteSpace=wrap;html=1;rounded=1;sketch=1;" vertex="1" parent="WIyWlLk6GJQsqaUBKTNV-1">
          <mxGeometry x="818" y="340" width="120" height="60" as="geometry" />
        </mxCell>
        <mxCell id="MVwHB6ay0Yw3TeFJw84J-108" style="edgeStyle=orthogonalEdgeStyle;rounded=1;sketch=1;orthogonalLoop=1;jettySize=auto;html=1;exitX=0.5;exitY=1;exitDx=0;exitDy=0;entryX=0.5;entryY=0;entryDx=0;entryDy=0;" edge="1" parent="WIyWlLk6GJQsqaUBKTNV-1" source="MVwHB6ay0Yw3TeFJw84J-85" target="MVwHB6ay0Yw3TeFJw84J-95">
          <mxGeometry relative="1" as="geometry" />
        </mxCell>
        <mxCell id="MVwHB6ay0Yw3TeFJw84J-111" style="edgeStyle=orthogonalEdgeStyle;rounded=1;sketch=1;orthogonalLoop=1;jettySize=auto;html=1;exitX=0.5;exitY=1;exitDx=0;exitDy=0;entryX=0.5;entryY=0;entryDx=0;entryDy=0;" edge="1" parent="WIyWlLk6GJQsqaUBKTNV-1" source="MVwHB6ay0Yw3TeFJw84J-85" target="MVwHB6ay0Yw3TeFJw84J-93">
          <mxGeometry relative="1" as="geometry" />
        </mxCell>
        <mxCell id="MVwHB6ay0Yw3TeFJw84J-85" value="2 groups for&lt;br&gt;each variable" style="whiteSpace=wrap;html=1;rounded=1;sketch=1;" vertex="1" parent="WIyWlLk6GJQsqaUBKTNV-1">
          <mxGeometry x="728" y="440" width="120" height="60" as="geometry" />
        </mxCell>
        <mxCell id="MVwHB6ay0Yw3TeFJw84J-112" style="edgeStyle=orthogonalEdgeStyle;rounded=1;sketch=1;orthogonalLoop=1;jettySize=auto;html=1;exitX=0.5;exitY=1;exitDx=0;exitDy=0;entryX=1;entryY=0.5;entryDx=0;entryDy=0;" edge="1" parent="WIyWlLk6GJQsqaUBKTNV-1" source="MVwHB6ay0Yw3TeFJw84J-87" target="MVwHB6ay0Yw3TeFJw84J-105">
          <mxGeometry relative="1" as="geometry" />
        </mxCell>
        <mxCell id="MVwHB6ay0Yw3TeFJw84J-87" value="&amp;gt; 2 groups for at&lt;br&gt;least one variable" style="whiteSpace=wrap;html=1;rounded=1;sketch=1;" vertex="1" parent="WIyWlLk6GJQsqaUBKTNV-1">
          <mxGeometry x="1018" y="440" width="120" height="60" as="geometry" />
        </mxCell>
        <mxCell id="MVwHB6ay0Yw3TeFJw84J-114" value="" style="edgeStyle=orthogonalEdgeStyle;rounded=1;sketch=1;orthogonalLoop=1;jettySize=auto;html=1;" edge="1" parent="WIyWlLk6GJQsqaUBKTNV-1" source="MVwHB6ay0Yw3TeFJw84J-89" target="MVwHB6ay0Yw3TeFJw84J-113">
          <mxGeometry relative="1" as="geometry" />
        </mxCell>
        <mxCell id="MVwHB6ay0Yw3TeFJw84J-89" value="1 quantitative&lt;br&gt;&amp;amp; 1 qualitative&amp;nbsp;" style="whiteSpace=wrap;html=1;rounded=1;sketch=1;" vertex="1" parent="WIyWlLk6GJQsqaUBKTNV-1">
          <mxGeometry x="1313" y="340" width="120" height="60" as="geometry" />
        </mxCell>
        <mxCell id="MVwHB6ay0Yw3TeFJw84J-98" value="" style="edgeStyle=orthogonalEdgeStyle;rounded=1;sketch=1;orthogonalLoop=1;jettySize=auto;html=1;" edge="1" parent="WIyWlLk6GJQsqaUBKTNV-1" source="MVwHB6ay0Yw3TeFJw84J-93" target="MVwHB6ay0Yw3TeFJw84J-97">
          <mxGeometry relative="1" as="geometry" />
        </mxCell>
        <mxCell id="MVwHB6ay0Yw3TeFJw84J-93" value="Paired samples" style="whiteSpace=wrap;html=1;rounded=1;sketch=1;" vertex="1" parent="WIyWlLk6GJQsqaUBKTNV-1">
          <mxGeometry x="618" y="540" width="120" height="60" as="geometry" />
        </mxCell>
        <mxCell id="MVwHB6ay0Yw3TeFJw84J-100" value="" style="edgeStyle=orthogonalEdgeStyle;rounded=1;sketch=1;orthogonalLoop=1;jettySize=auto;html=1;" edge="1" parent="WIyWlLk6GJQsqaUBKTNV-1" source="MVwHB6ay0Yw3TeFJw84J-95" target="MVwHB6ay0Yw3TeFJw84J-99">
          <mxGeometry relative="1" as="geometry" />
        </mxCell>
        <mxCell id="MVwHB6ay0Yw3TeFJw84J-104" value="" style="edgeStyle=orthogonalEdgeStyle;rounded=1;sketch=1;orthogonalLoop=1;jettySize=auto;html=1;" edge="1" parent="WIyWlLk6GJQsqaUBKTNV-1" source="MVwHB6ay0Yw3TeFJw84J-95" target="MVwHB6ay0Yw3TeFJw84J-103">
          <mxGeometry relative="1" as="geometry" />
        </mxCell>
        <mxCell id="MVwHB6ay0Yw3TeFJw84J-95" value="Independent&lt;br&gt;samples" style="whiteSpace=wrap;html=1;rounded=1;sketch=1;" vertex="1" parent="WIyWlLk6GJQsqaUBKTNV-1">
          <mxGeometry x="838" y="540" width="120" height="60" as="geometry" />
        </mxCell>
        <mxCell id="MVwHB6ay0Yw3TeFJw84J-97" value="McNemar&#39;s test" style="ellipse;whiteSpace=wrap;html=1;rounded=1;sketch=1;" vertex="1" parent="WIyWlLk6GJQsqaUBKTNV-1">
          <mxGeometry x="618" y="740" width="120" height="60" as="geometry" />
        </mxCell>
        <mxCell id="MVwHB6ay0Yw3TeFJw84J-102" value="" style="edgeStyle=orthogonalEdgeStyle;rounded=1;sketch=1;orthogonalLoop=1;jettySize=auto;html=1;" edge="1" parent="WIyWlLk6GJQsqaUBKTNV-1" source="MVwHB6ay0Yw3TeFJw84J-99" target="MVwHB6ay0Yw3TeFJw84J-101">
          <mxGeometry relative="1" as="geometry" />
        </mxCell>
        <mxCell id="MVwHB6ay0Yw3TeFJw84J-99" value="Expected&lt;br&gt;frequencies &amp;lt; 5" style="whiteSpace=wrap;html=1;rounded=1;sketch=1;" vertex="1" parent="WIyWlLk6GJQsqaUBKTNV-1">
          <mxGeometry x="768" y="640" width="120" height="60" as="geometry" />
        </mxCell>
        <mxCell id="MVwHB6ay0Yw3TeFJw84J-101" value="Fisher&#39;s exact test" style="ellipse;whiteSpace=wrap;html=1;rounded=1;sketch=1;" vertex="1" parent="WIyWlLk6GJQsqaUBKTNV-1">
          <mxGeometry x="768" y="740" width="120" height="60" as="geometry" />
        </mxCell>
        <mxCell id="MVwHB6ay0Yw3TeFJw84J-106" value="" style="edgeStyle=orthogonalEdgeStyle;rounded=1;sketch=1;orthogonalLoop=1;jettySize=auto;html=1;" edge="1" parent="WIyWlLk6GJQsqaUBKTNV-1" source="MVwHB6ay0Yw3TeFJw84J-103" target="MVwHB6ay0Yw3TeFJw84J-105">
          <mxGeometry relative="1" as="geometry" />
        </mxCell>
        <mxCell id="MVwHB6ay0Yw3TeFJw84J-103" value="Expected&lt;br&gt;frequencies &amp;gt;= 5" style="whiteSpace=wrap;html=1;rounded=1;sketch=1;" vertex="1" parent="WIyWlLk6GJQsqaUBKTNV-1">
          <mxGeometry x="908" y="640" width="120" height="60" as="geometry" />
        </mxCell>
        <mxCell id="MVwHB6ay0Yw3TeFJw84J-105" value="Chi-square test&lt;br&gt;of independence" style="ellipse;whiteSpace=wrap;html=1;rounded=1;sketch=1;" vertex="1" parent="WIyWlLk6GJQsqaUBKTNV-1">
          <mxGeometry x="908" y="740" width="120" height="60" as="geometry" />
        </mxCell>
        <mxCell id="MVwHB6ay0Yw3TeFJw84J-182" style="edgeStyle=orthogonalEdgeStyle;rounded=1;sketch=1;orthogonalLoop=1;jettySize=auto;html=1;exitX=0.5;exitY=1;exitDx=0;exitDy=0;entryX=0.5;entryY=0;entryDx=0;entryDy=0;" edge="1" parent="WIyWlLk6GJQsqaUBKTNV-1" source="MVwHB6ay0Yw3TeFJw84J-113" target="MVwHB6ay0Yw3TeFJw84J-115">
          <mxGeometry relative="1" as="geometry" />
        </mxCell>
        <mxCell id="MVwHB6ay0Yw3TeFJw84J-183" style="edgeStyle=orthogonalEdgeStyle;rounded=1;sketch=1;orthogonalLoop=1;jettySize=auto;html=1;exitX=0.5;exitY=1;exitDx=0;exitDy=0;entryX=0.5;entryY=0;entryDx=0;entryDy=0;" edge="1" parent="WIyWlLk6GJQsqaUBKTNV-1" source="MVwHB6ay0Yw3TeFJw84J-113" target="MVwHB6ay0Yw3TeFJw84J-117">
          <mxGeometry relative="1" as="geometry" />
        </mxCell>
        <mxCell id="MVwHB6ay0Yw3TeFJw84J-113" value="Number of&lt;br&gt;groups/samples&lt;br&gt;to compare?" style="rhombus;whiteSpace=wrap;html=1;rounded=1;sketch=1;" vertex="1" parent="WIyWlLk6GJQsqaUBKTNV-1">
          <mxGeometry x="1288" y="705" width="170" height="130" as="geometry" />
        </mxCell>
        <mxCell id="MVwHB6ay0Yw3TeFJw84J-187" style="edgeStyle=orthogonalEdgeStyle;rounded=1;sketch=1;orthogonalLoop=1;jettySize=auto;html=1;exitX=0.5;exitY=1;exitDx=0;exitDy=0;entryX=0.5;entryY=0;entryDx=0;entryDy=0;" edge="1" parent="WIyWlLk6GJQsqaUBKTNV-1" source="MVwHB6ay0Yw3TeFJw84J-115" target="MVwHB6ay0Yw3TeFJw84J-122">
          <mxGeometry relative="1" as="geometry" />
        </mxCell>
        <mxCell id="MVwHB6ay0Yw3TeFJw84J-188" style="edgeStyle=orthogonalEdgeStyle;rounded=1;sketch=1;orthogonalLoop=1;jettySize=auto;html=1;exitX=0.5;exitY=1;exitDx=0;exitDy=0;entryX=0.5;entryY=0;entryDx=0;entryDy=0;" edge="1" parent="WIyWlLk6GJQsqaUBKTNV-1" source="MVwHB6ay0Yw3TeFJw84J-115" target="MVwHB6ay0Yw3TeFJw84J-128">
          <mxGeometry relative="1" as="geometry" />
        </mxCell>
        <mxCell id="MVwHB6ay0Yw3TeFJw84J-115" value="2 groups" style="whiteSpace=wrap;html=1;rounded=1;sketch=1;" vertex="1" parent="WIyWlLk6GJQsqaUBKTNV-1">
          <mxGeometry x="731" y="1120" width="120" height="60" as="geometry" />
        </mxCell>
        <mxCell id="MVwHB6ay0Yw3TeFJw84J-189" style="edgeStyle=orthogonalEdgeStyle;rounded=1;sketch=1;orthogonalLoop=1;jettySize=auto;html=1;exitX=0.5;exitY=1;exitDx=0;exitDy=0;entryX=0.5;entryY=0;entryDx=0;entryDy=0;" edge="1" parent="WIyWlLk6GJQsqaUBKTNV-1" source="MVwHB6ay0Yw3TeFJw84J-117" target="MVwHB6ay0Yw3TeFJw84J-150">
          <mxGeometry relative="1" as="geometry" />
        </mxCell>
        <mxCell id="MVwHB6ay0Yw3TeFJw84J-190" style="edgeStyle=orthogonalEdgeStyle;rounded=1;sketch=1;orthogonalLoop=1;jettySize=auto;html=1;exitX=0.5;exitY=1;exitDx=0;exitDy=0;entryX=0.5;entryY=0;entryDx=0;entryDy=0;" edge="1" parent="WIyWlLk6GJQsqaUBKTNV-1" source="MVwHB6ay0Yw3TeFJw84J-117" target="MVwHB6ay0Yw3TeFJw84J-152">
          <mxGeometry relative="1" as="geometry" />
        </mxCell>
        <mxCell id="MVwHB6ay0Yw3TeFJw84J-117" value="&amp;gt; 2 groups" style="whiteSpace=wrap;html=1;rounded=1;sketch=1;" vertex="1" parent="WIyWlLk6GJQsqaUBKTNV-1">
          <mxGeometry x="1833" y="1120" width="120" height="60" as="geometry" />
        </mxCell>
        <mxCell id="MVwHB6ay0Yw3TeFJw84J-184" style="edgeStyle=orthogonalEdgeStyle;rounded=1;sketch=1;orthogonalLoop=1;jettySize=auto;html=1;exitX=0.5;exitY=1;exitDx=0;exitDy=0;entryX=0.5;entryY=0;entryDx=0;entryDy=0;" edge="1" parent="WIyWlLk6GJQsqaUBKTNV-1" source="MVwHB6ay0Yw3TeFJw84J-122" target="MVwHB6ay0Yw3TeFJw84J-124">
          <mxGeometry relative="1" as="geometry" />
        </mxCell>
        <mxCell id="MVwHB6ay0Yw3TeFJw84J-185" style="edgeStyle=orthogonalEdgeStyle;rounded=1;sketch=1;orthogonalLoop=1;jettySize=auto;html=1;exitX=0.5;exitY=1;exitDx=0;exitDy=0;entryX=0.5;entryY=0;entryDx=0;entryDy=0;" edge="1" parent="WIyWlLk6GJQsqaUBKTNV-1" source="MVwHB6ay0Yw3TeFJw84J-122" target="MVwHB6ay0Yw3TeFJw84J-126">
          <mxGeometry relative="1" as="geometry" />
        </mxCell>
        <mxCell id="MVwHB6ay0Yw3TeFJw84J-122" value="Independent&lt;br&gt;samples" style="whiteSpace=wrap;html=1;rounded=1;sketch=1;" vertex="1" parent="WIyWlLk6GJQsqaUBKTNV-1">
          <mxGeometry x="506" y="1220" width="120" height="60" as="geometry" />
        </mxCell>
        <mxCell id="MVwHB6ay0Yw3TeFJw84J-135" value="" style="edgeStyle=orthogonalEdgeStyle;rounded=1;sketch=1;orthogonalLoop=1;jettySize=auto;html=1;" edge="1" parent="WIyWlLk6GJQsqaUBKTNV-1" source="MVwHB6ay0Yw3TeFJw84J-124" target="MVwHB6ay0Yw3TeFJw84J-134">
          <mxGeometry relative="1" as="geometry" />
        </mxCell>
        <mxCell id="MVwHB6ay0Yw3TeFJw84J-137" value="" style="edgeStyle=orthogonalEdgeStyle;rounded=1;sketch=1;orthogonalLoop=1;jettySize=auto;html=1;" edge="1" parent="WIyWlLk6GJQsqaUBKTNV-1" source="MVwHB6ay0Yw3TeFJw84J-124" target="MVwHB6ay0Yw3TeFJw84J-136">
          <mxGeometry relative="1" as="geometry" />
        </mxCell>
        <mxCell id="MVwHB6ay0Yw3TeFJw84J-124" value="Parametric" style="whiteSpace=wrap;html=1;rounded=1;sketch=1;" vertex="1" parent="WIyWlLk6GJQsqaUBKTNV-1">
          <mxGeometry x="376" y="1320" width="120" height="60" as="geometry" />
        </mxCell>
        <mxCell id="MVwHB6ay0Yw3TeFJw84J-143" value="" style="edgeStyle=orthogonalEdgeStyle;rounded=1;sketch=1;orthogonalLoop=1;jettySize=auto;html=1;" edge="1" parent="WIyWlLk6GJQsqaUBKTNV-1" source="MVwHB6ay0Yw3TeFJw84J-126" target="MVwHB6ay0Yw3TeFJw84J-142">
          <mxGeometry relative="1" as="geometry" />
        </mxCell>
        <mxCell id="MVwHB6ay0Yw3TeFJw84J-126" value="Nonparametric" style="whiteSpace=wrap;html=1;rounded=1;sketch=1;" vertex="1" parent="WIyWlLk6GJQsqaUBKTNV-1">
          <mxGeometry x="636" y="1320" width="120" height="60" as="geometry" />
        </mxCell>
        <mxCell id="MVwHB6ay0Yw3TeFJw84J-133" value="" style="edgeStyle=orthogonalEdgeStyle;rounded=1;sketch=1;orthogonalLoop=1;jettySize=auto;html=1;" edge="1" parent="WIyWlLk6GJQsqaUBKTNV-1" source="MVwHB6ay0Yw3TeFJw84J-128" target="MVwHB6ay0Yw3TeFJw84J-132">
          <mxGeometry relative="1" as="geometry" />
        </mxCell>
        <mxCell id="MVwHB6ay0Yw3TeFJw84J-186" style="edgeStyle=orthogonalEdgeStyle;rounded=1;sketch=1;orthogonalLoop=1;jettySize=auto;html=1;exitX=0.5;exitY=1;exitDx=0;exitDy=0;entryX=0.5;entryY=0;entryDx=0;entryDy=0;" edge="1" parent="WIyWlLk6GJQsqaUBKTNV-1" source="MVwHB6ay0Yw3TeFJw84J-128" target="MVwHB6ay0Yw3TeFJw84J-130">
          <mxGeometry relative="1" as="geometry" />
        </mxCell>
        <mxCell id="MVwHB6ay0Yw3TeFJw84J-128" value="Paired&lt;br&gt;samples" style="whiteSpace=wrap;html=1;rounded=1;sketch=1;" vertex="1" parent="WIyWlLk6GJQsqaUBKTNV-1">
          <mxGeometry x="951" y="1220" width="120" height="60" as="geometry" />
        </mxCell>
        <mxCell id="MVwHB6ay0Yw3TeFJw84J-145" value="" style="edgeStyle=orthogonalEdgeStyle;rounded=1;sketch=1;orthogonalLoop=1;jettySize=auto;html=1;" edge="1" parent="WIyWlLk6GJQsqaUBKTNV-1" source="MVwHB6ay0Yw3TeFJw84J-130" target="MVwHB6ay0Yw3TeFJw84J-144">
          <mxGeometry relative="1" as="geometry" />
        </mxCell>
        <mxCell id="MVwHB6ay0Yw3TeFJw84J-130" value="Parametric" style="whiteSpace=wrap;html=1;rounded=1;sketch=1;" vertex="1" parent="WIyWlLk6GJQsqaUBKTNV-1">
          <mxGeometry x="871" y="1320" width="120" height="60" as="geometry" />
        </mxCell>
        <mxCell id="MVwHB6ay0Yw3TeFJw84J-148" value="" style="edgeStyle=orthogonalEdgeStyle;rounded=1;sketch=1;orthogonalLoop=1;jettySize=auto;html=1;" edge="1" parent="WIyWlLk6GJQsqaUBKTNV-1" source="MVwHB6ay0Yw3TeFJw84J-132" target="MVwHB6ay0Yw3TeFJw84J-147">
          <mxGeometry relative="1" as="geometry" />
        </mxCell>
        <mxCell id="MVwHB6ay0Yw3TeFJw84J-132" value="Nonparametric" style="whiteSpace=wrap;html=1;rounded=1;sketch=1;" vertex="1" parent="WIyWlLk6GJQsqaUBKTNV-1">
          <mxGeometry x="1031" y="1320" width="120" height="60" as="geometry" />
        </mxCell>
        <mxCell id="MVwHB6ay0Yw3TeFJw84J-139" value="" style="edgeStyle=orthogonalEdgeStyle;rounded=1;sketch=1;orthogonalLoop=1;jettySize=auto;html=1;" edge="1" parent="WIyWlLk6GJQsqaUBKTNV-1" source="MVwHB6ay0Yw3TeFJw84J-134" target="MVwHB6ay0Yw3TeFJw84J-138">
          <mxGeometry relative="1" as="geometry" />
        </mxCell>
        <mxCell id="MVwHB6ay0Yw3TeFJw84J-134" value="Equal population variances" style="whiteSpace=wrap;html=1;rounded=1;sketch=1;" vertex="1" parent="WIyWlLk6GJQsqaUBKTNV-1">
          <mxGeometry x="296" y="1420" width="120" height="60" as="geometry" />
        </mxCell>
        <mxCell id="MVwHB6ay0Yw3TeFJw84J-141" value="" style="edgeStyle=orthogonalEdgeStyle;rounded=1;sketch=1;orthogonalLoop=1;jettySize=auto;html=1;" edge="1" parent="WIyWlLk6GJQsqaUBKTNV-1" source="MVwHB6ay0Yw3TeFJw84J-136" target="MVwHB6ay0Yw3TeFJw84J-140">
          <mxGeometry relative="1" as="geometry" />
        </mxCell>
        <mxCell id="MVwHB6ay0Yw3TeFJw84J-136" value="Unequal population variances" style="whiteSpace=wrap;html=1;rounded=1;sketch=1;" vertex="1" parent="WIyWlLk6GJQsqaUBKTNV-1">
          <mxGeometry x="456" y="1420" width="120" height="60" as="geometry" />
        </mxCell>
        <mxCell id="MVwHB6ay0Yw3TeFJw84J-138" value="Student&#39;s t-test for 2 independent samples" style="ellipse;whiteSpace=wrap;html=1;rounded=1;sketch=1;" vertex="1" parent="WIyWlLk6GJQsqaUBKTNV-1">
          <mxGeometry x="281" y="1518.5" width="150" height="80" as="geometry" />
        </mxCell>
        <mxCell id="MVwHB6ay0Yw3TeFJw84J-140" value="Welch&#39;s t-test for 2 independent samples" style="ellipse;whiteSpace=wrap;html=1;rounded=1;sketch=1;" vertex="1" parent="WIyWlLk6GJQsqaUBKTNV-1">
          <mxGeometry x="441" y="1515.5" width="150" height="83" as="geometry" />
        </mxCell>
        <mxCell id="MVwHB6ay0Yw3TeFJw84J-142" value="Mann-Whitney&lt;br&gt;U test" style="ellipse;whiteSpace=wrap;html=1;rounded=1;sketch=1;" vertex="1" parent="WIyWlLk6GJQsqaUBKTNV-1">
          <mxGeometry x="621" y="1517" width="150" height="83" as="geometry" />
        </mxCell>
        <mxCell id="MVwHB6ay0Yw3TeFJw84J-144" value="Student&#39;s t-test&lt;br&gt;for paired samples" style="ellipse;whiteSpace=wrap;html=1;rounded=1;sketch=1;" vertex="1" parent="WIyWlLk6GJQsqaUBKTNV-1">
          <mxGeometry x="856" y="1517" width="150" height="83" as="geometry" />
        </mxCell>
        <mxCell id="MVwHB6ay0Yw3TeFJw84J-147" value="Wilcoxon&lt;br&gt;signed-rank test" style="ellipse;whiteSpace=wrap;html=1;rounded=1;sketch=1;" vertex="1" parent="WIyWlLk6GJQsqaUBKTNV-1">
          <mxGeometry x="1016" y="1517" width="150" height="80" as="geometry" />
        </mxCell>
        <mxCell id="MVwHB6ay0Yw3TeFJw84J-192" style="edgeStyle=orthogonalEdgeStyle;rounded=1;sketch=1;orthogonalLoop=1;jettySize=auto;html=1;exitX=0.5;exitY=1;exitDx=0;exitDy=0;entryX=0.5;entryY=0;entryDx=0;entryDy=0;" edge="1" parent="WIyWlLk6GJQsqaUBKTNV-1" source="MVwHB6ay0Yw3TeFJw84J-150" target="MVwHB6ay0Yw3TeFJw84J-154">
          <mxGeometry relative="1" as="geometry" />
        </mxCell>
        <mxCell id="MVwHB6ay0Yw3TeFJw84J-193" style="edgeStyle=orthogonalEdgeStyle;rounded=1;sketch=1;orthogonalLoop=1;jettySize=auto;html=1;exitX=0.5;exitY=1;exitDx=0;exitDy=0;entryX=0.5;entryY=0;entryDx=0;entryDy=0;" edge="1" parent="WIyWlLk6GJQsqaUBKTNV-1" source="MVwHB6ay0Yw3TeFJw84J-150" target="MVwHB6ay0Yw3TeFJw84J-156">
          <mxGeometry relative="1" as="geometry" />
        </mxCell>
        <mxCell id="MVwHB6ay0Yw3TeFJw84J-150" value="Independent&lt;br&gt;samples" style="whiteSpace=wrap;html=1;rounded=1;sketch=1;" vertex="1" parent="WIyWlLk6GJQsqaUBKTNV-1">
          <mxGeometry x="1603" y="1220" width="120" height="60" as="geometry" />
        </mxCell>
        <mxCell id="MVwHB6ay0Yw3TeFJw84J-170" value="" style="edgeStyle=orthogonalEdgeStyle;rounded=1;sketch=1;orthogonalLoop=1;jettySize=auto;html=1;" edge="1" parent="WIyWlLk6GJQsqaUBKTNV-1" source="MVwHB6ay0Yw3TeFJw84J-152" target="MVwHB6ay0Yw3TeFJw84J-169">
          <mxGeometry relative="1" as="geometry" />
        </mxCell>
        <mxCell id="MVwHB6ay0Yw3TeFJw84J-191" style="edgeStyle=orthogonalEdgeStyle;rounded=1;sketch=1;orthogonalLoop=1;jettySize=auto;html=1;exitX=0.5;exitY=1;exitDx=0;exitDy=0;entryX=0.5;entryY=0;entryDx=0;entryDy=0;" edge="1" parent="WIyWlLk6GJQsqaUBKTNV-1" source="MVwHB6ay0Yw3TeFJw84J-152" target="MVwHB6ay0Yw3TeFJw84J-171">
          <mxGeometry relative="1" as="geometry" />
        </mxCell>
        <mxCell id="MVwHB6ay0Yw3TeFJw84J-152" value="Paired&lt;br&gt;samples" style="whiteSpace=wrap;html=1;rounded=1;sketch=1;" vertex="1" parent="WIyWlLk6GJQsqaUBKTNV-1">
          <mxGeometry x="2068" y="1220" width="120" height="60" as="geometry" />
        </mxCell>
        <mxCell id="MVwHB6ay0Yw3TeFJw84J-160" style="edgeStyle=orthogonalEdgeStyle;rounded=1;sketch=1;orthogonalLoop=1;jettySize=auto;html=1;exitX=0.5;exitY=1;exitDx=0;exitDy=0;entryX=0.5;entryY=0;entryDx=0;entryDy=0;" edge="1" parent="WIyWlLk6GJQsqaUBKTNV-1" source="MVwHB6ay0Yw3TeFJw84J-154" target="MVwHB6ay0Yw3TeFJw84J-158">
          <mxGeometry relative="1" as="geometry" />
        </mxCell>
        <mxCell id="MVwHB6ay0Yw3TeFJw84J-162" value="" style="edgeStyle=orthogonalEdgeStyle;rounded=1;sketch=1;orthogonalLoop=1;jettySize=auto;html=1;" edge="1" parent="WIyWlLk6GJQsqaUBKTNV-1" source="MVwHB6ay0Yw3TeFJw84J-154" target="MVwHB6ay0Yw3TeFJw84J-161">
          <mxGeometry relative="1" as="geometry" />
        </mxCell>
        <mxCell id="MVwHB6ay0Yw3TeFJw84J-154" value="Parametric" style="whiteSpace=wrap;html=1;rounded=1;sketch=1;" vertex="1" parent="WIyWlLk6GJQsqaUBKTNV-1">
          <mxGeometry x="1463" y="1320" width="120" height="60" as="geometry" />
        </mxCell>
        <mxCell id="MVwHB6ay0Yw3TeFJw84J-168" value="" style="edgeStyle=orthogonalEdgeStyle;rounded=1;sketch=1;orthogonalLoop=1;jettySize=auto;html=1;" edge="1" parent="WIyWlLk6GJQsqaUBKTNV-1" source="MVwHB6ay0Yw3TeFJw84J-156" target="MVwHB6ay0Yw3TeFJw84J-167">
          <mxGeometry relative="1" as="geometry" />
        </mxCell>
        <mxCell id="MVwHB6ay0Yw3TeFJw84J-156" value="Nonparametric" style="whiteSpace=wrap;html=1;rounded=1;sketch=1;" vertex="1" parent="WIyWlLk6GJQsqaUBKTNV-1">
          <mxGeometry x="1743" y="1320" width="120" height="60" as="geometry" />
        </mxCell>
        <mxCell id="MVwHB6ay0Yw3TeFJw84J-164" value="" style="edgeStyle=orthogonalEdgeStyle;rounded=1;sketch=1;orthogonalLoop=1;jettySize=auto;html=1;" edge="1" parent="WIyWlLk6GJQsqaUBKTNV-1" source="MVwHB6ay0Yw3TeFJw84J-158" target="MVwHB6ay0Yw3TeFJw84J-163">
          <mxGeometry relative="1" as="geometry" />
        </mxCell>
        <mxCell id="MVwHB6ay0Yw3TeFJw84J-158" value="Equal population&lt;br&gt;variances" style="whiteSpace=wrap;html=1;rounded=1;sketch=1;" vertex="1" parent="WIyWlLk6GJQsqaUBKTNV-1">
          <mxGeometry x="1383" y="1420" width="120" height="60" as="geometry" />
        </mxCell>
        <mxCell id="MVwHB6ay0Yw3TeFJw84J-166" value="" style="edgeStyle=orthogonalEdgeStyle;rounded=1;sketch=1;orthogonalLoop=1;jettySize=auto;html=1;" edge="1" parent="WIyWlLk6GJQsqaUBKTNV-1" source="MVwHB6ay0Yw3TeFJw84J-161" target="MVwHB6ay0Yw3TeFJw84J-165">
          <mxGeometry relative="1" as="geometry" />
        </mxCell>
        <mxCell id="MVwHB6ay0Yw3TeFJw84J-161" value="Unequal population variances" style="whiteSpace=wrap;html=1;rounded=1;sketch=1;" vertex="1" parent="WIyWlLk6GJQsqaUBKTNV-1">
          <mxGeometry x="1543" y="1420" width="120" height="60" as="geometry" />
        </mxCell>
        <mxCell id="MVwHB6ay0Yw3TeFJw84J-163" value="One-way&lt;br&gt;ANOVA" style="ellipse;whiteSpace=wrap;html=1;rounded=1;sketch=1;" vertex="1" parent="WIyWlLk6GJQsqaUBKTNV-1">
          <mxGeometry x="1368" y="1520" width="150" height="80" as="geometry" />
        </mxCell>
        <mxCell id="MVwHB6ay0Yw3TeFJw84J-165" value="Welch&#39;s&lt;br&gt;ANOVA" style="ellipse;whiteSpace=wrap;html=1;rounded=1;sketch=1;" vertex="1" parent="WIyWlLk6GJQsqaUBKTNV-1">
          <mxGeometry x="1528" y="1520" width="150" height="80" as="geometry" />
        </mxCell>
        <mxCell id="MVwHB6ay0Yw3TeFJw84J-167" value="Kruskal-Wallis&lt;br&gt;test" style="ellipse;whiteSpace=wrap;html=1;rounded=1;sketch=1;" vertex="1" parent="WIyWlLk6GJQsqaUBKTNV-1">
          <mxGeometry x="1728" y="1517" width="150" height="83" as="geometry" />
        </mxCell>
        <mxCell id="MVwHB6ay0Yw3TeFJw84J-174" value="" style="edgeStyle=orthogonalEdgeStyle;rounded=1;sketch=1;orthogonalLoop=1;jettySize=auto;html=1;" edge="1" parent="WIyWlLk6GJQsqaUBKTNV-1" source="MVwHB6ay0Yw3TeFJw84J-169" target="MVwHB6ay0Yw3TeFJw84J-173">
          <mxGeometry relative="1" as="geometry" />
        </mxCell>
        <mxCell id="MVwHB6ay0Yw3TeFJw84J-169" value="Parametric" style="whiteSpace=wrap;html=1;rounded=1;sketch=1;" vertex="1" parent="WIyWlLk6GJQsqaUBKTNV-1">
          <mxGeometry x="1983" y="1320" width="120" height="60" as="geometry" />
        </mxCell>
        <mxCell id="MVwHB6ay0Yw3TeFJw84J-176" value="" style="edgeStyle=orthogonalEdgeStyle;rounded=1;sketch=1;orthogonalLoop=1;jettySize=auto;html=1;" edge="1" parent="WIyWlLk6GJQsqaUBKTNV-1" source="MVwHB6ay0Yw3TeFJw84J-171" target="MVwHB6ay0Yw3TeFJw84J-175">
          <mxGeometry relative="1" as="geometry" />
        </mxCell>
        <mxCell id="MVwHB6ay0Yw3TeFJw84J-171" value="Nonparametric" style="whiteSpace=wrap;html=1;rounded=1;sketch=1;" vertex="1" parent="WIyWlLk6GJQsqaUBKTNV-1">
          <mxGeometry x="2163" y="1320" width="120" height="60" as="geometry" />
        </mxCell>
        <mxCell id="MVwHB6ay0Yw3TeFJw84J-173" value="Repeated&lt;br&gt;measures ANOVA" style="ellipse;whiteSpace=wrap;html=1;rounded=1;sketch=1;" vertex="1" parent="WIyWlLk6GJQsqaUBKTNV-1">
          <mxGeometry x="1968" y="1518.5" width="150" height="80" as="geometry" />
        </mxCell>
        <mxCell id="MVwHB6ay0Yw3TeFJw84J-175" value="Friedman&lt;br&gt;test" style="ellipse;whiteSpace=wrap;html=1;rounded=1;sketch=1;" vertex="1" parent="WIyWlLk6GJQsqaUBKTNV-1">
          <mxGeometry x="2148" y="1517" width="150" height="80" as="geometry" />
        </mxCell>
      </root>
    </mxGraphModel>
  </diagram>
</mxfile>
